<svg width="29" height="29" viewBox="0 0 29 29" fill="none" xmlns="http://www.w3.org/2000/svg">
<g clip-path="url(#clip0_389_1388)">
<path d="M14.4618 29C12.0176 29 9.57331 28.289 7.20544 26.9177C3.20808 24.6322 0.840211 21.0771 0.127305 16.3792C0.101844 16.1506 0.0763828 15.9221 0.0509219 15.6935L0 15.3888V13.5858L0.0509219 13.2049C0.0763828 12.9764 0.101844 12.7224 0.152766 12.4939C0.585601 9.34501 1.93503 6.60245 4.15013 4.34238C6.33977 2.1331 8.96225 0.761821 12.0176 0.228546C12.374 0.177758 12.7305 0.12697 13.0869 0.0761821C13.2651 0.0507881 13.4179 0.025394 13.5961 0H15.4039C15.6076 0.025394 15.7603 0.0507881 15.9385 0.0761821C16.295 0.12697 16.6769 0.177758 17.0334 0.228546C21.1071 0.990368 24.3152 3.12347 26.6321 6.55166C28.338 9.09107 29.1273 11.859 29 14.7793C28.7454 20.7469 25.9192 25.0385 20.5979 27.5779C18.561 28.5175 16.4987 29 14.4618 29ZM14.4873 1.44746C7.30729 1.47285 1.45127 7.28809 1.45127 14.4746C1.45127 21.6357 7.30729 27.4764 14.4873 27.4764C21.6673 27.4764 27.5233 21.6357 27.5487 14.4746C27.5487 10.9956 26.1993 7.74518 23.7296 5.28196C21.2599 2.81874 17.9754 1.44746 14.4873 1.44746Z" fill="#79D6FF"/>
<path d="M14.64 16.4808C14.4109 16.4808 14.2072 16.4554 13.9781 16.3792C13.2142 16.1506 12.7305 15.592 12.5522 14.8301C12.3995 14.0683 12.6032 13.4081 13.1888 12.824C14.1817 11.859 15.302 10.8941 16.6769 9.82751C16.8806 9.67515 17.0843 9.52278 17.3134 9.34502H17.3389C16.8297 9.04029 16.295 8.86254 15.7094 8.73557C15.302 8.65938 14.8946 8.63399 14.5127 8.63399C11.6611 8.63399 9.29324 10.6147 8.7331 13.4589C8.50395 14.7793 8.04565 15.1603 6.72169 15.1603H5.42318C5.14311 15.1603 4.86304 15.1603 4.60843 15.1603C4.07375 15.1603 3.61545 14.9571 3.33538 14.627C3.02985 14.2969 2.90255 13.8144 2.97893 13.3065C3.53907 8.93872 5.77963 5.81525 9.62423 4.03767C11.3301 3.25045 13.036 2.84415 14.691 2.84415C17.2625 2.84415 19.7322 3.80912 22.0492 5.68828C24.137 7.38968 25.4609 9.67514 25.9701 12.5193C26.0211 12.8494 26.0975 13.2303 26.0975 13.6366C26.0975 14.4492 25.4864 15.1349 24.6971 15.1603C24.2133 15.1857 23.7296 15.211 23.2458 15.211C22.7621 15.211 22.2529 15.1857 21.7436 15.1603C21.0562 15.1349 20.4706 14.6016 20.3687 13.8652C20.2414 13.0272 20.0123 12.3161 19.6813 11.7067C19.6813 11.7067 19.6813 11.6813 19.6558 11.6813C19.2485 12.2146 18.7647 12.8748 18.23 13.5096C17.4153 14.5 16.7533 15.2364 16.0658 15.8967C15.6585 16.2776 15.1747 16.4808 14.64 16.4808ZM19.4522 9.52278C18.3064 10.31 17.2625 11.0972 16.2695 11.9352C15.4293 12.6209 14.7419 13.2303 14.1308 13.8398C13.8253 14.1445 13.7744 14.5254 14.0035 14.8301C14.1308 15.0079 14.3345 15.1095 14.5637 15.1095C14.7673 15.1095 14.971 15.0079 15.1238 14.8555C16.9315 13.0272 18.4083 11.0464 19.4522 9.52278ZM6.82353 7.77059C5.39772 9.42121 4.55751 11.3258 4.32836 13.4843C4.3029 13.6366 4.32836 13.7128 4.35382 13.7128C4.37928 13.7382 4.4302 13.7636 4.58297 13.7636C4.73573 13.7636 4.8885 13.7636 5.06673 13.7636H7.00176C7.28183 13.7636 7.30729 13.7382 7.33275 13.4843C7.51097 12.1384 8.04565 10.9448 8.91133 9.8783C8.1475 9.11648 7.38367 8.35466 6.82353 7.77059ZM20.496 10.437C21.1326 11.3765 21.5145 12.4177 21.6673 13.535C21.6927 13.7382 21.7182 13.789 21.9728 13.789C22.1256 13.789 22.2783 13.789 22.4565 13.789H24.3661C24.5953 13.789 24.6462 13.7382 24.6462 13.7382C24.6462 13.7128 24.6971 13.662 24.6716 13.4335C24.4425 11.4019 23.6532 9.54817 22.3292 7.94835C22.3038 7.89756 22.2274 7.84677 22.2019 7.79599C22.151 7.84677 22.1001 7.89756 22.0492 7.92296C22.0237 7.94835 21.9728 7.99914 21.9473 8.02453C21.7436 8.22768 21.6673 8.30387 21.6927 8.48163C21.7182 8.68478 21.6163 8.83714 21.5145 8.93872L21.4636 8.98951L21.209 9.34502C21.0053 9.70054 20.7761 10.0814 20.496 10.437C20.5215 10.437 20.5215 10.437 20.496 10.437ZM7.79105 6.80562C8.40211 7.41507 9.08955 8.07532 9.9043 8.91332C11.0246 7.99914 12.3486 7.44047 13.8253 7.28811C13.8253 6.93259 13.8253 6.55168 13.8253 6.19616V5.35816C13.8253 5.00264 13.8253 4.67252 13.8253 4.317C13.7489 4.317 13.6725 4.3424 13.5707 4.3424C13.4943 4.3424 13.4179 4.3424 13.3415 4.36779C11.2792 4.59634 9.39508 5.40895 7.79105 6.80562ZM15.2002 7.28811C16.4223 7.38968 17.5426 7.79599 18.5356 8.48163C18.5356 8.48163 18.561 8.48162 18.561 8.50702C18.561 8.50702 18.5865 8.50702 18.5865 8.48163C18.9684 8.20229 19.3503 7.94835 19.7577 7.69441L20.0887 7.46586C20.216 7.38968 20.3433 7.28811 20.547 7.28811C20.5724 7.28811 20.5979 7.28811 20.6234 7.28811C20.6488 7.28811 20.6488 7.28811 20.6743 7.28811C20.7761 7.28811 20.827 7.23732 20.9798 7.08495C21.0817 6.98338 21.1835 6.8818 21.2599 6.78022C19.5285 5.28198 17.4917 4.44397 15.2256 4.29161C15.2256 4.62173 15.2256 4.97725 15.2256 5.30737V6.17077C15.2002 6.55168 15.2002 6.90719 15.2002 7.28811Z" fill="#79D6FF"/>
<path d="M7.94385 20.5438C7.94385 19.8581 7.94385 19.1725 7.94385 18.4869C7.94385 18.1059 8.09661 17.9536 8.47853 17.9536C8.96228 17.9536 9.44604 17.9536 9.90434 17.9536C10.5409 17.979 11.0246 18.2583 11.2792 18.8424C11.5338 19.401 11.4575 19.9597 11.0755 20.4422C10.9992 20.5438 10.9737 20.5946 11.0755 20.6961C11.4829 21.204 11.5593 21.7373 11.2792 22.3214C10.9992 22.9054 10.5154 23.1848 9.85342 23.1848C9.39512 23.1848 8.91136 23.1848 8.45307 23.1848C8.09661 23.1848 7.94385 23.0324 7.94385 22.6769C7.94385 21.9658 7.94385 21.2548 7.94385 20.5438ZM8.83498 19.4772C8.83498 19.655 8.83498 19.8327 8.83498 20.0105C8.83498 20.1121 8.86044 20.1375 8.96228 20.1375C9.29328 20.1375 9.64973 20.1375 9.98072 20.1375C10.3117 20.1121 10.5663 19.8327 10.5663 19.5026C10.5663 19.1725 10.3626 18.8932 10.0062 18.8424C9.82796 18.817 9.64973 18.817 9.4715 18.817C8.83498 18.817 8.83498 18.817 8.83498 19.4772ZM9.4715 21.0009C9.31874 21.0009 9.14051 21.0009 8.98775 21.0009C8.8859 21.0009 8.83498 21.0263 8.83498 21.1532C8.83498 21.4834 8.83498 21.8389 8.83498 22.169C8.83498 22.2706 8.8859 22.3214 8.98775 22.3214C9.31874 22.3214 9.64973 22.3214 9.98072 22.296C10.3626 22.2706 10.5918 21.9912 10.5918 21.6357C10.5918 21.2802 10.3117 21.0263 9.95526 21.0009C9.77703 21.0009 9.62427 21.0009 9.4715 21.0009Z" fill="#79D6FF"/>
<path d="M14.5128 20.0359C14.8184 19.4264 15.0984 18.8678 15.3785 18.3091C15.4804 18.0806 15.6331 17.9282 15.9132 17.9536C16.1423 18.0044 16.2696 18.1821 16.2696 18.4869C16.2696 19.8581 16.2696 21.2548 16.2696 22.6261C16.2696 22.9562 16.0914 23.1594 15.8368 23.1594C15.5567 23.1594 15.404 22.9562 15.404 22.6007C15.404 21.8389 15.404 21.0771 15.353 20.3152C15.2257 20.5438 15.0984 20.7723 14.9966 21.0009C14.8948 21.204 14.7929 21.3818 14.5383 21.3818C14.2582 21.3818 14.1564 21.204 14.0545 21.0009C13.9527 20.7723 13.8254 20.5438 13.6472 20.3152C13.6472 20.9755 13.6472 21.6611 13.6472 22.3214C13.6472 22.4483 13.6472 22.5499 13.6472 22.6769C13.6472 22.9562 13.4435 23.134 13.2143 23.134C12.9597 23.134 12.7815 22.9308 12.7815 22.6515C12.7815 21.6611 12.7815 20.6961 12.7815 19.7058C12.7815 19.2741 12.7815 18.817 12.7815 18.3853C12.7815 18.1313 12.8833 17.979 13.1125 17.9028C13.3671 17.852 13.5199 17.979 13.6217 18.1821C13.9018 18.817 14.1818 19.401 14.5128 20.0359Z" fill="#79D6FF"/>
<path d="M19.7576 20.5692C19.7576 21.077 19.7576 21.5849 19.7576 22.0928C19.7576 22.2706 19.8085 22.3214 19.9868 22.3214C20.1905 22.3214 20.3941 22.3214 20.5978 22.3214C20.9034 22.3214 21.0816 22.4991 21.0816 22.7531C21.0816 23.007 20.9034 23.1848 20.5978 23.2101C20.0631 23.2101 19.503 23.2101 18.9683 23.2101C18.6883 23.2101 18.3827 23.2101 18.1027 23.2101C17.7971 23.2101 17.6189 23.0324 17.6189 22.7784C17.6189 22.4991 17.7971 22.3467 18.1027 22.3467C18.3063 22.3467 18.51 22.3467 18.7137 22.3467C18.8665 22.3467 18.9174 22.296 18.9174 22.1436C18.9174 21.1024 18.9174 20.0867 18.9174 19.0455C18.9174 18.8932 18.8665 18.8424 18.7137 18.8424C18.51 18.8424 18.2809 18.8424 18.0772 18.8424C17.7971 18.8424 17.6189 18.6646 17.6189 18.4361C17.6189 18.1821 17.7717 17.979 18.0517 17.979C18.9174 17.979 19.8085 17.979 20.6997 17.979C20.9543 17.979 21.1325 18.1821 21.1325 18.4361C21.1325 18.69 20.9543 18.8424 20.6742 18.8424C20.4705 18.8424 20.2414 18.8424 20.0377 18.8424C19.8595 18.8424 19.8085 18.8932 19.8085 19.0709C19.7576 19.5534 19.7576 20.0613 19.7576 20.5692Z" fill="#79D6FF"/>
</g>
<defs>
<clipPath id="clip0_389_1388">
<rect width="29" height="29" fill="white"/>
</clipPath>
</defs>
</svg>
