<svg width="25" height="25" viewBox="0 0 25 25" fill="none" xmlns="http://www.w3.org/2000/svg">
<path fill-rule="evenodd" clip-rule="evenodd" d="M6.625 4.625H18.625C19.6859 4.625 20.7033 5.04643 21.4534 5.79657C22.2036 6.54672 22.625 7.56413 22.625 8.625V18.625C22.625 19.6859 22.2036 20.7033 21.4534 21.4534C20.7033 22.2036 19.6859 22.625 18.625 22.625H6.625C5.56413 22.625 4.54672 22.2036 3.79657 21.4534C3.04643 20.7033 2.625 19.6859 2.625 18.625V8.625C2.625 7.56413 3.04643 6.54672 3.79657 5.79657C4.54672 5.04643 5.56413 4.625 6.625 4.625ZM6.625 6.625C6.09457 6.625 5.58586 6.83571 5.21079 7.21079C4.83571 7.58586 4.625 8.09457 4.625 8.625V18.625C4.625 19.1554 4.83571 19.6641 5.21079 20.0392C5.58586 20.4143 6.09457 20.625 6.625 20.625H18.625C19.1554 20.625 19.6641 20.4143 20.0392 20.0392C20.4143 19.6641 20.625 19.1554 20.625 18.625V8.625C20.625 8.09457 20.4143 7.58586 20.0392 7.21079C19.6641 6.83571 19.1554 6.625 18.625 6.625H6.625Z" fill="#006CB5"/>
<path fill-rule="evenodd" clip-rule="evenodd" d="M3.625 10.625C3.625 10.3598 3.73036 10.1054 3.91789 9.91789C4.10543 9.73036 4.35978 9.625 4.625 9.625H20.625C20.8902 9.625 21.1446 9.73036 21.3321 9.91789C21.5196 10.1054 21.625 10.3598 21.625 10.625C21.625 10.8902 21.5196 11.1446 21.3321 11.3321C21.1446 11.5196 20.8902 11.625 20.625 11.625H4.625C4.35978 11.625 4.10543 11.5196 3.91789 11.3321C3.73036 11.1446 3.625 10.8902 3.625 10.625ZM8.625 2.625C8.89022 2.625 9.14457 2.73036 9.33211 2.91789C9.51964 3.10543 9.625 3.35978 9.625 3.625V7.625C9.625 7.89022 9.51964 8.14457 9.33211 8.33211C9.14457 8.51964 8.89022 8.625 8.625 8.625C8.35978 8.625 8.10543 8.51964 7.91789 8.33211C7.73036 8.14457 7.625 7.89022 7.625 7.625V3.625C7.625 3.35978 7.73036 3.10543 7.91789 2.91789C8.10543 2.73036 8.35978 2.625 8.625 2.625ZM16.625 2.625C16.8902 2.625 17.1446 2.73036 17.3321 2.91789C17.5196 3.10543 17.625 3.35978 17.625 3.625V7.625C17.625 7.89022 17.5196 8.14457 17.3321 8.33211C17.1446 8.51964 16.8902 8.625 16.625 8.625C16.3598 8.625 16.1054 8.51964 15.9179 8.33211C15.7304 8.14457 15.625 7.89022 15.625 7.625V3.625C15.625 3.35978 15.7304 3.10543 15.9179 2.91789C16.1054 2.73036 16.3598 2.625 16.625 2.625Z" fill="#006CB5"/>
<path d="M8.625 13.625C8.625 13.8902 8.51964 14.1446 8.33211 14.3321C8.14457 14.5196 7.89022 14.625 7.625 14.625C7.35978 14.625 7.10543 14.5196 6.91789 14.3321C6.73036 14.1446 6.625 13.8902 6.625 13.625C6.625 13.3598 6.73036 13.1054 6.91789 12.9179C7.10543 12.7304 7.35978 12.625 7.625 12.625C7.89022 12.625 8.14457 12.7304 8.33211 12.9179C8.51964 13.1054 8.625 13.3598 8.625 13.625ZM8.625 17.625C8.625 17.8902 8.51964 18.1446 8.33211 18.3321C8.14457 18.5196 7.89022 18.625 7.625 18.625C7.35978 18.625 7.10543 18.5196 6.91789 18.3321C6.73036 18.1446 6.625 17.8902 6.625 17.625C6.625 17.3598 6.73036 17.1054 6.91789 16.9179C7.10543 16.7304 7.35978 16.625 7.625 16.625C7.89022 16.625 8.14457 16.7304 8.33211 16.9179C8.51964 17.1054 8.625 17.3598 8.625 17.625ZM13.625 13.625C13.625 13.8902 13.5196 14.1446 13.3321 14.3321C13.1446 14.5196 12.8902 14.625 12.625 14.625C12.3598 14.625 12.1054 14.5196 11.9179 14.3321C11.7304 14.1446 11.625 13.8902 11.625 13.625C11.625 13.3598 11.7304 13.1054 11.9179 12.9179C12.1054 12.7304 12.3598 12.625 12.625 12.625C12.8902 12.625 13.1446 12.7304 13.3321 12.9179C13.5196 13.1054 13.625 13.3598 13.625 13.625ZM13.625 17.625C13.625 17.8902 13.5196 18.1446 13.3321 18.3321C13.1446 18.5196 12.8902 18.625 12.625 18.625C12.3598 18.625 12.1054 18.5196 11.9179 18.3321C11.7304 18.1446 11.625 17.8902 11.625 17.625C11.625 17.3598 11.7304 17.1054 11.9179 16.9179C12.1054 16.7304 12.3598 16.625 12.625 16.625C12.8902 16.625 13.1446 16.7304 13.3321 16.9179C13.5196 17.1054 13.625 17.3598 13.625 17.625ZM18.625 13.625C18.625 13.8902 18.5196 14.1446 18.3321 14.3321C18.1446 14.5196 17.8902 14.625 17.625 14.625C17.3598 14.625 17.1054 14.5196 16.9179 14.3321C16.7304 14.1446 16.625 13.8902 16.625 13.625C16.625 13.3598 16.7304 13.1054 16.9179 12.9179C17.1054 12.7304 17.3598 12.625 17.625 12.625C17.8902 12.625 18.1446 12.7304 18.3321 12.9179C18.5196 13.1054 18.625 13.3598 18.625 13.625ZM18.625 17.625C18.625 17.8902 18.5196 18.1446 18.3321 18.3321C18.1446 18.5196 17.8902 18.625 17.625 18.625C17.3598 18.625 17.1054 18.5196 16.9179 18.3321C16.7304 18.1446 16.625 17.8902 16.625 17.625C16.625 17.3598 16.7304 17.1054 16.9179 16.9179C17.1054 16.7304 17.3598 16.625 17.625 16.625C17.8902 16.625 18.1446 16.7304 18.3321 16.9179C18.5196 17.1054 18.625 17.3598 18.625 17.625Z" fill="#006CB5"/>
</svg>
