<svg width="29" height="27" viewBox="0 0 29 27" fill="none" xmlns="http://www.w3.org/2000/svg">
<path d="M25.079 21.4523C25.9788 21.9166 26.7225 22.5695 27.3102 23.411C27.8978 24.2525 28.2697 25.2004 28.4258 26.2547H26.9108C26.8098 25.7034 26.6215 25.1907 26.3461 24.7168C26.0706 24.2428 25.7355 23.8366 25.3407 23.498C24.9459 23.1595 24.5005 22.8887 24.0047 22.6856C23.5089 22.4824 22.9947 22.3857 22.4622 22.3954C21.9205 22.3954 21.4063 22.4921 20.9196 22.6856C20.433 22.879 19.9877 23.145 19.5837 23.4835C19.1797 23.8221 18.8445 24.2332 18.5783 24.7168C18.312 25.2004 18.1238 25.713 18.0136 26.2547H16.4986C16.6455 25.2101 17.0128 24.267 17.6004 23.4255C18.188 22.584 18.9364 21.9263 19.8454 21.4523C19.322 21.0171 18.918 20.4899 18.6334 19.8709C18.3487 19.2518 18.2018 18.5941 18.1926 17.8977C18.1926 17.4624 18.2477 17.0417 18.3579 16.6354C18.4681 16.2292 18.6334 15.8471 18.8537 15.4893C19.0741 15.1314 19.3358 14.8122 19.6388 14.5317C19.9418 14.2512 20.2815 14.0142 20.6579 13.8208C20.41 13.4435 20.1254 13.1098 19.804 12.8197C19.4827 12.5295 19.1338 12.2732 18.7573 12.0507C18.3809 11.8282 17.986 11.6686 17.5729 11.5719C17.1597 11.4752 16.7327 11.4172 16.292 11.3978C15.5574 11.3978 14.855 11.5477 14.1848 11.8476C13.5145 12.1474 12.9314 12.5875 12.4356 13.1679C12.656 13.7966 12.7662 14.4446 12.7662 15.112C12.7662 16.0019 12.5779 16.8386 12.2015 17.622C11.825 18.4055 11.2971 19.0632 10.6176 19.5952C11.2144 19.9144 11.7516 20.3061 12.229 20.7704C12.7065 21.2347 13.1197 21.757 13.4686 22.3374C13.8175 22.9177 14.0792 23.5367 14.2536 24.1945C14.4281 24.8522 14.5199 25.5389 14.5291 26.2547H12.7662C12.7662 25.4906 12.6284 24.77 12.353 24.0929C12.0775 23.4158 11.7011 22.8258 11.2236 22.3228C10.7462 21.8199 10.1815 21.4185 9.52957 21.1186C8.87766 20.8188 8.19361 20.6737 7.47743 20.6834C6.74288 20.6834 6.05884 20.8285 5.42529 21.1186C4.79174 21.4088 4.23165 21.8054 3.74501 22.3083C3.25838 22.8113 2.87733 23.4062 2.60188 24.0929C2.32642 24.7796 2.18869 25.5002 2.18869 26.2547H0.425781C0.425781 25.5486 0.5176 24.8667 0.701236 24.209C0.884873 23.5512 1.14656 22.9322 1.48628 22.3519C1.82601 21.7715 2.2346 21.2492 2.71206 20.7849C3.18951 20.3207 3.73124 19.9241 4.33724 19.5952C3.65779 19.0632 3.12983 18.4055 2.75338 17.622C2.37692 16.8386 2.18869 16.0019 2.18869 15.112C2.18869 14.3479 2.32642 13.6273 2.60188 12.9502C2.87733 12.2732 3.25379 11.6832 3.73124 11.1802C4.2087 10.6772 4.76879 10.2758 5.41152 9.97596C6.05424 9.67612 6.74288 9.53103 7.47743 9.5407C8.25788 9.5407 8.99702 9.71481 9.69484 10.063C10.3927 10.4112 10.9987 10.8948 11.5128 11.5139C11.7516 11.2721 12.0087 11.0544 12.2841 10.861C12.5596 10.6675 12.8488 10.4838 13.1518 10.3097C12.4723 9.77768 11.9444 9.11995 11.5679 8.33648C11.1915 7.55302 11.0033 6.71635 11.0033 5.82648C11.0033 5.06236 11.141 4.34176 11.4164 3.66469C11.6919 2.98762 12.0683 2.3976 12.5458 1.89463C13.0233 1.39167 13.5833 0.990259 14.2261 0.690413C14.8688 0.390567 15.5574 0.245481 16.292 0.255153C17.0174 0.255153 17.7014 0.40024 18.3441 0.690413C18.9869 0.980587 19.5469 1.37716 20.0244 1.88012C20.5019 2.38309 20.8829 2.97795 21.1675 3.66469C21.4522 4.35144 21.5899 5.07203 21.5807 5.82648C21.5807 6.71635 21.3925 7.55302 21.016 8.33648C20.6396 9.11995 20.1116 9.77768 19.4322 10.3097C20.0749 10.6675 20.6534 11.1028 21.1675 11.6154C21.6817 12.1281 22.1179 12.7229 22.476 13.4C23.0636 13.4 23.6145 13.5161 24.1287 13.7482C24.6429 13.9804 25.0974 14.3044 25.4922 14.7203C25.887 15.1362 26.19 15.6102 26.4012 16.1422C26.6124 16.6741 26.7225 17.2593 26.7317 17.8977C26.7317 18.5941 26.5894 19.2518 26.3048 19.8709C26.0201 20.4899 25.6115 21.0171 25.079 21.4523ZM7.47743 18.8263C7.96407 18.8263 8.41857 18.7295 8.84093 18.5361C9.2633 18.3426 9.63975 18.0766 9.9703 17.7381C10.3008 17.3996 10.5533 17.0078 10.7278 16.5629C10.9023 16.118 10.9941 15.6343 11.0033 15.112C11.0033 14.5994 10.9114 14.1206 10.7278 13.6757C10.5442 13.2307 10.2917 12.8342 9.9703 12.486C9.64893 12.1378 9.27707 11.8718 8.8547 11.688C8.43234 11.5042 7.97325 11.4075 7.47743 11.3978C6.99079 11.3978 6.53629 11.4945 6.11393 11.688C5.69156 11.8814 5.31511 12.1474 4.98456 12.486C4.65402 12.8245 4.40151 13.2162 4.22706 13.6612C4.05261 14.1061 3.96079 14.5897 3.95161 15.112C3.95161 15.6247 4.04342 16.1035 4.22706 16.5484C4.4107 16.9933 4.6632 17.3899 4.98456 17.7381C5.30593 18.0863 5.67779 18.3523 6.10015 18.5361C6.52252 18.7199 6.98161 18.8166 7.47743 18.8263ZM12.7662 5.82648C12.7662 6.33912 12.858 6.81791 13.0416 7.26284C13.2253 7.70778 13.4778 8.10435 13.7991 8.45255C14.1205 8.80076 14.4923 9.06675 14.9147 9.25053C15.3371 9.43431 15.7962 9.53103 16.292 9.5407C16.7786 9.5407 17.2331 9.44398 17.6555 9.25053C18.0779 9.05708 18.4543 8.79109 18.7849 8.45255C19.1154 8.11402 19.3679 7.72228 19.5424 7.27735C19.7168 6.83242 19.8086 6.3488 19.8178 5.82648C19.8178 5.31384 19.726 4.83506 19.5424 4.39013C19.3587 3.94519 19.1062 3.54862 18.7849 3.20041C18.4635 2.85221 18.0916 2.58621 17.6693 2.40244C17.2469 2.21866 16.7878 2.12194 16.292 2.11226C15.8054 2.11226 15.3509 2.20899 14.9285 2.40244C14.5061 2.59589 14.1297 2.86188 13.7991 3.20041C13.4686 3.53895 13.2161 3.93068 13.0416 4.37562C12.8672 4.82055 12.7753 5.30417 12.7662 5.82648ZM22.4622 14.9669C22.0765 14.9669 21.7185 15.0443 21.3879 15.1991C21.0574 15.3538 20.7635 15.5618 20.5064 15.823C20.2494 16.0841 20.0474 16.3936 19.9004 16.7515C19.7535 17.1094 19.6801 17.4915 19.6801 17.8977C19.6801 18.3039 19.7535 18.6812 19.9004 19.0294C20.0474 19.3776 20.2448 19.6871 20.4927 19.9579C20.7406 20.2288 21.0344 20.4416 21.3741 20.5963C21.7139 20.7511 22.0765 20.8285 22.4622 20.8285C22.8478 20.8285 23.2059 20.7511 23.5365 20.5963C23.867 20.4416 24.1608 20.2336 24.4179 19.9724C24.675 19.7113 24.877 19.4018 25.0239 19.0439C25.1708 18.686 25.2443 18.3039 25.2443 17.8977C25.2443 17.4915 25.1708 17.1142 25.0239 16.766C24.877 16.4178 24.6796 16.1083 24.4317 15.8375C24.1838 15.5666 23.89 15.3538 23.5502 15.1991C23.2105 15.0443 22.8478 14.9669 22.4622 14.9669Z" fill="#79D6FF"/>
</svg>
