<svg width="24" height="28" viewBox="0 0 24 28" fill="none" xmlns="http://www.w3.org/2000/svg">
<g clip-path="url(#clip0_389_1395)">
<path d="M12.0127 28C10.9505 28 9.86308 27.948 8.77562 27.818C6.42367 27.558 4.57752 27.0901 2.95897 26.3621C2.27615 26.0501 1.39101 25.5822 0.733473 24.7502C-0.278118 23.5023 -0.202249 21.9424 0.935791 20.7985C1.56804 20.1746 2.37731 19.6546 3.49006 19.2126C4.60281 18.7707 5.79143 18.4327 7.15708 18.1987L6.82831 17.7567C6.06962 16.5348 5.28563 15.2869 4.50165 14.039C3.49006 12.4011 3.03484 10.5812 3.16129 8.68338C3.31303 6.08357 4.3752 3.89972 6.29722 2.20985C7.56171 1.09192 9.02852 0.389975 10.6976 0.129994C10.8747 0.103995 11.0264 0.0779973 11.2034 0.0519991L11.4563 0.026001H12.5438L12.8979 0.0519991C13.4037 0.129994 13.9347 0.207988 14.4658 0.363977C16.2614 0.909938 17.7535 1.94986 18.9421 3.45776C19.802 4.54968 20.3836 5.79759 20.6618 7.14949C21.1676 9.59332 20.7883 11.8812 19.5491 13.961C18.8662 15.0789 18.1834 16.1968 17.5006 17.2628L16.8936 18.2247C18.5881 18.5367 19.9537 18.9267 21.1423 19.4986C21.8504 19.8366 22.7356 20.3046 23.3931 21.1625C24.2024 22.1764 24.2277 23.4763 23.4943 24.5423C22.9379 25.3482 22.1286 25.8162 21.5217 26.1541C20.2066 26.8561 18.7145 27.2981 16.6913 27.636C15.1486 27.87 13.5807 28 12.0127 28ZM8.32041 20.2006C8.32041 20.2006 8.29512 20.2006 8.26983 20.2006C8.04222 20.2526 7.8399 20.2786 7.61229 20.3046C7.46055 20.3306 7.30882 20.3566 7.15708 20.3825C5.96846 20.6165 4.55223 20.9545 3.26245 21.6825C2.80723 21.9424 2.47847 22.2024 2.25086 22.4884C1.99796 22.8004 1.99796 23.0604 2.25086 23.3723C2.4026 23.5543 2.55434 23.7103 2.78194 23.8663C3.66709 24.4903 4.65339 24.8282 5.41208 25.0362C7.33411 25.6082 9.40787 25.8682 11.9621 25.8942C12.038 25.8942 12.1897 25.8942 12.1897 25.8942C12.7208 25.8942 13.2266 25.8682 13.7324 25.8422C15.882 25.7122 17.627 25.4002 19.2456 24.8282C20.0296 24.5423 20.8388 24.2303 21.5217 23.6063C21.7746 23.3723 21.901 23.1644 21.901 22.9564C21.901 22.7484 21.7746 22.5404 21.547 22.3064C21.0665 21.8124 20.4342 21.5265 19.9031 21.2925C18.4616 20.6685 16.9442 20.3825 15.6544 20.2006L14.1371 22.6444C13.7324 23.2943 13.3278 23.9443 12.9231 24.5942C12.6955 24.9842 12.3668 25.1662 11.9874 25.1662C11.9368 25.1662 11.861 25.1662 11.7851 25.1402C11.3805 25.0622 11.1782 24.7762 11.0264 24.5423L9.88837 22.7224C9.38258 21.8904 8.87678 21.0845 8.3457 20.2526C8.3457 20.2006 8.3457 20.2006 8.32041 20.2006ZM11.8104 2.13185C9.66076 2.20985 7.8399 3.19777 6.49954 5.04364C4.881 7.27948 4.75455 10.5033 6.22135 12.8431C7.56171 15.0009 8.90207 17.1588 10.2424 19.3166C10.2424 19.3166 11.6334 21.5525 12.0127 22.1504C12.3921 21.5265 13.6313 19.4986 13.6313 19.4986C14.9969 17.3148 16.3373 15.1309 17.7029 12.9731C18.7651 11.2572 19.0686 9.41133 18.5881 7.46147C17.8041 4.2637 15.0981 2.13185 11.8104 2.13185Z" fill="#79D6FF"/>
<path d="M12.0128 13.467C10.9 13.467 9.86313 13.0251 9.07914 12.2191C8.29516 11.4132 7.86523 10.3212 7.86523 9.20333C7.86523 6.8375 9.73668 4.91364 12.038 4.91364C14.3394 4.91364 16.2109 6.8375 16.2109 9.17733C16.2109 10.3212 15.7809 11.3872 14.997 12.2191C14.1624 12.9991 13.1255 13.467 12.0128 13.467ZM11.9875 7.01949C10.8241 7.01949 9.88842 8.00741 9.88842 9.17733C9.88842 10.3732 10.8241 11.3352 11.9875 11.3352C12.5438 11.3352 13.0749 11.1012 13.4796 10.6852C13.8842 10.2693 14.0865 9.72329 14.0865 9.17733C14.0865 7.98142 13.1508 7.01949 11.9875 7.01949Z" fill="#79D6FF"/>
</g>
<defs>
<clipPath id="clip0_389_1395">
<rect width="24" height="28" fill="white"/>
</clipPath>
</defs>
</svg>
