<svg width="26" height="26" viewBox="0 0 26 26" fill="none" xmlns="http://www.w3.org/2000/svg">
<g clip-path="url(#clip0_389_1422)">
<path d="M15.4514 25.9935C8.06696 25.9935 8.01011 25.6872 7.09565 24.9986C6.61058 24.6338 5.69533 24.3811 2.3523 24.1634C2.10977 24.1475 1.87902 24.0545 1.72426 23.8668C1.65317 23.7803 -0.017334 21.344 -0.017334 17.442C-0.017334 13.5968 1.17826 11.8442 1.22942 11.763C1.30237 11.6461 1.40385 11.5497 1.52432 11.4829C1.64478 11.4161 1.78027 11.3811 1.91802 11.3811C4.66305 11.3811 8.46839 7.87718 11.0265 1.76068C11.469 0.702803 11.5604 0.00689697 13.1854 0.00689697C14.1096 0.00689697 15.1455 0.668678 15.657 1.51777C16.7063 3.25245 16.1733 6.9782 15.6805 8.96923C17.3563 8.95582 20.3898 8.93305 21.8332 8.93305C23.8409 8.93305 25.1697 10.1303 25.2099 11.8804C25.2233 12.4581 25.1473 13.1958 24.9804 13.5777C25.4224 14.0185 25.9924 14.6831 26.0171 15.5391C26.048 16.6441 25.3245 17.4854 24.8626 17.968C24.9686 18.2894 25.1806 18.7155 25.1599 19.225C25.1091 20.4779 24.1418 21.2851 23.5394 21.7063C23.5893 22.0492 23.6283 22.696 23.5182 23.1961C23.0836 25.192 20.1565 25.9935 15.4513 25.9935L15.4514 25.9935ZM2.7833 22.5156C5.6953 22.7566 7.252 23.0828 8.07303 23.7007C8.70841 24.1792 8.6105 24.3689 15.4513 24.3689C17.5378 24.3689 21.6186 24.282 21.9314 22.8496C22.0557 22.2768 21.4517 21.7137 21.4496 21.7093C21.2847 21.3022 21.4683 20.8244 21.8705 20.6485C21.877 20.6453 23.4992 20.0643 23.5362 19.1576C23.5605 18.5779 23.1624 18.2297 23.1535 18.2151C22.9166 17.8478 23.0032 17.3441 23.3623 17.0938C23.3663 17.0906 24.4173 16.4536 24.3917 15.585C24.3718 14.8952 23.463 14.4097 23.4354 14.3935C23.2323 14.2773 23.0844 14.0762 23.0381 13.8463C22.9926 13.6168 23.0437 13.3758 23.1863 13.1894C23.1863 13.1894 23.5995 12.5329 23.5845 11.917C23.5548 10.5987 22.137 10.5573 21.8327 10.5573C19.7832 10.5573 14.5195 10.578 14.5195 10.578C14.2355 10.5792 13.9897 10.4452 13.837 10.2181C13.6846 9.99095 13.6732 9.70904 13.7626 9.45066C14.5564 7.16469 14.9996 3.57832 14.2635 2.35307C14.0466 1.99191 13.997 1.63116 13.1845 1.63116C13.072 1.63116 12.8039 1.72013 12.5244 2.38638C9.8094 8.88232 5.75421 12.6397 2.43271 12.9785C2.1463 13.6318 1.60762 14.9854 1.60762 17.4416C1.60762 19.9486 2.40181 21.888 2.7833 22.5156Z" fill="#79D6FF"/>
</g>
<defs>
<clipPath id="clip0_389_1422">
<rect width="26" height="26" fill="white"/>
</clipPath>
</defs>
</svg>
